<?xml version='1.0' encoding='utf-8'?>
<svg xmlns="http://www.w3.org/2000/svg" enable-background="new -33.544 201.1074 1986.5848 677.5975" version="1.1" viewBox="-33.544 201.1074 1986.5848 677.5975">
    <path name="main" d="m875.28 280.84c62.64-21.98 129.64-29.03 195.73-27.32 96.17 2.61 190.83 22.7 283.57 47.08 84.11 22.08 167.46 47.05 249.88 74.8 20.05 6.79 40.08 13.66 59.96 20.97 3.0399 1.04 6.21 2.79 9.5299 1.84 9.3201-2.07 18.71-3.79 28.06-5.71-0.28 7.82-0.35 15.65-0.5 23.47 12.5-1.44 24.99-2.98 37.49-4.47-0.26 5.99-0.33 11.99-0.52 17.99 12.5 0.26 25 0.75 37.51 1.03-0.49 4.98-0.95 9.96-1.54 14.93 24.5 6.13 49.19 11.63 73.38 18.96 0.7301 8.14 5.15 15.3 10.36 21.37 10.95 12.77 24.6 22.86 35.97 35.22 6 6.52 9.8199 15 10.53 23.85 1.52 13.93-2.34 27.58-4.1599 41.27-2.14 15.52-4.37 31.19-3.52 46.89 0 7.97 4.77 15.03 4.4299 23.04-0.3199 7.34-3.71 14.32-8.4299 19.85-7.79 9.2599-16.57 17.61-24.71 26.55-6.55 7.4-13.78 15.79-24.12 17.33-59.87 8.4-119.67 17.38-179.61 25.2-0.21-3.9 0.1101-8.15-1.97-11.61-1.4299-2.37-4.46-1.12-6.65-1.25-11.31 0.26-22.65 1.12-33.95 0.51-13.27 30.97-36.29 58.03-65.6 74.85-32.8 18.89-72.72 23.04-109.46 15.5-29.02-5.93-55.95-21.05-76.43-42.41-13.57-14.08-24.85-30.48-32.51-48.49-6.66 0.18-13.32 0.11-19.97-0.03-2.29 0-5.72-0.08-6.14 2.88-0.1901 4.74 1.4299 9.37 1.17 14.12-0.13 2.57-2.54 4.28-5.01 3.89-178.03-0.82-356.05-1.99-534.07-2.83-65.12-0.63-130.25-0.52-195.37-1.18 0.24-5.68 1.59-11.29 1.56-16.98 0-2.46-1.91-4.67-4.42-4.74-7.24-0.5-14.44 0.94-21.66 1.32-3.9301 12.97-11.38 24.56-19.35 35.4-21.96 29.4-54.06 51.75-90.23 59.27-37.06 7.64-77.09 2.19-110.07-16.64-26.15-15-47.74-37.77-61.63-64.49-2.66-4.61-3.1-10.86-7.96-13.91-4.83-2.7-10.6-1.09-15.83-1.0699-2.77-0.34-4.96 2.2-4.73 4.86 0.27 8-0.18 16 0.18 24-49.84-0.58-99.79-4.85-148.6-15.24-27.88-6.21-55.79-13.8-81.41-26.67 4.97-7.63 9.9-15.34 16.05-22.09-3.21-30.57-4.75-61.29-6.02-91.99 32.99-39.44 79.27-66.52 128.45-80.45 3.9-1.41 8.48-1.21 11.9-3.7 13.93-12.74 29.21-24.09 45.82-33.13 19.8-10.65 41.76-18.22 64.41-18.71 2.35-0.12 4.77 0.12 7.07-0.54 18.03-5.75 36.67-9.35 55.26-12.81 45.61-8.2 91.59-14.2 137.59-19.82 33.6-3.91 67.21-7.86 100.93-10.64 12.81 10.68 28.99 16.38 45.22 19.3 20.24 3.57 40.97 3.25 61.34 1.01 10.02-9.84 21.5-17.99 32.87-26.16 32.38-22.73 66.02-43.57 99.74-64.23 24.09-14.65 48.3-29.09 72.69-43.21 2.34-1.52 5.35-2.36 6.91-4.83 0.56-2.22-1.37-3.63-2.69-5.03-5.59-5.3701-11.07-10.86-16.72-16.17m83.45 25.07c-19.54 4.12-38.51 10.75-56.62 19.13-30.3 14.19-58.82 31.87-86.53 50.55-32.22 21.42-64.42 42.88-96.57 64.41-2.01 1.53-4.53 3.07-5.02 5.76 0.83 1.92 3.16 1.9 4.93 2.13 6.66 0.46 13.35-0.04 19.98-0.76 8.22-13.11 18.46-25 30.39-34.86 12.43-10.15 27.42-18.08 43.66-19.24 8.69-0.51 16.39 4.93 21.6 11.43 8.89 11.32 13.55 25.73 14.01 40.05 105.31-3.71 210.65-6.95 315.97-10.56 12.32-39.7 24.81-79.35 37.09-119.06 1.23-3.27-1.14-6.8-4.62-6.87-49.53-7.95-99.75-12.5-149.94-11.17-29.56 1.42-59.29 2.98-88.33 9.06m281.62 12.65c-1.25 0.54-2.34 1.6-2.6799 2.94-2.38 33.49-5.4401 66.96-7.7201 100.48-0.1899 2.93-0.0399 7.95 4.03 7.87 17.01-0.03 33.99-1.62 50.97-2.48 51.39-3.39 102.8-6.67 154.07-11.59 9.4199-0.92 19.47-1.76 27.47-7.36 3.15-2.05 4.89-6.38 2.72-9.77-3.83-6.51-10.88-10.06-17.14-13.81-21.63-11.94-44.94-20.42-68.23-28.48-43.58-14.68-88.04-26.62-132.76-37.28-3.4901-0.73-7.2501-1.92-10.73-0.52m-71.73 118.92c3.65 4.03 7.95 7.49 11.01 12.05 12 16.35 14.77 37.87 11.26 57.48-3.24 20.44-12.96 38.93-21.15 57.69-13.14 29.14-27.79 58.5-50.84 81.19-12.77 12.59-27.38 23.22-42.85 32.22-10.62 5.26-21.67 9.77-33.11 12.92-20.8 5.67-42.54 5.53-63.93 5.48-44.02 0.34-88.03 1.32-132.04 2.06-64 1.26-128 2.52-191.99 3.94-3.86 0.7-5.18-3.69-5.39-6.67-2.94-37.6-5.75-75.22-8.65-112.83-0.71-7.72-0.81-15.51-2.19-23.15-5.79-36.83 6.41-75.94 32.19-102.89 3.6-4.21 8.39-7.34 11.34-12.1-1.61-0.77-3.3101-2.58-5.13-1.26-3.38 2.02-5.87 5.14-8.59 7.92-16.59 17.76-29.66 39.44-34.53 63.45-3.08 14.51-2.02 29.41-1.55 44.11 0.53 11.33 1.55 22.62 2.54 33.92 2.59 37.63 5.68 75.23 8.58 112.85 0.08 3.24 3.67 4.42 6.41 4.07 88.98-1.81 177.94-4.41 266.93-5.68 34.02-0.69 68.05-1.16 102.07-1.84 18.87-1.22 37.24-6.94 54.23-15.09 31.42-15.31 57.52-40.22 76.89-69.1 12.59-20.84 23.89-42.51 33.08-65.07 7.1001-17.74 13.03-36.15 15.13-55.21 1.2201-13.34 0.7101-27.52-5.84-39.53-4.1-7.3-8.41-14.54-13.78-20.98-2.08-2.31-4.22-4.81-7.1699-5.97-3.1401-1.0401-5.4802 4.0299-2.9301 6.0199m-903.19 30.12c-18.59 4.32-36.49 11.41-53.2 20.62-24.89 13.7-47.71 31.12-67.81 51.19-4.26 4.39-8.74 8.73-11.91 14.02-0.79 1.43-1.67 3.22-0.76 4.82 3.32 1.89 7.3 0.65 10.84 0.18 21.84-4.86 42.73-13.58 62.09-24.74 26.5-15.47 50.64-35.22 70.43-58.71 1.54-2.15 5-5.84 1.82-8.02-3.76-1.19-7.76-0.16-11.5 0.64m1561.7 16.1c-24.9 2.68-49.78 5.63-74.65 8.54-23.24 2.56-46.43 5.78-69.72 7.59-1.02 0.51-1.9 1.2-2.64 2.05 2.86 4.15 7.89 5.67 12.13 7.98 15.85 7.42 33.02 13.44 50.76 12.88 38.01 0.15 76-1.26 114-1.69 1.84-0.12 4.37 0.04 5.23-2.06 0.67-2.14-0.23-4.34-0.7-6.41-3.01-10.82-8.0701-20.93-13.88-30.48-6.88 0.02-13.7 0.96-20.53 1.6m-1433.7 62.09c-26.58 3.51-51.35 16.65-70.63 35.06-9.46 9.13-18.16 19.42-23.49 31.56-8.3 17.74-13.86 36.95-14.6 56.6-0.67 17.8 2.9 35.73 10.31 51.93 8.25 18.14 20.89 34.11 35.87 47.17 6.26 5.21 12.54 10.79 20.27 13.69 20.14 8.53 41.77 14.57 63.8 14.13 19.32-0.09 38.37-5.63 55.33-14.74 7.67-4.36 15.79-8.47 21.72-15.18 22.27-22.42 39.86-51.08 43.29-83 2.72-23.92-2.68-48.38-13.84-69.6-6.37-12.02-14.31-23.37-24.31-32.66-12.84-10.71-27.17-19.73-42.58-26.25-19.18-8.04-40.45-11.57-61.14-8.71m1078.7-0.62c-17.7 2.06-35.25 6.65-51.15 14.82-14.03 7.21-26.68 17.21-36.65 29.46-21.94 27.01-32.04 62.85-29.69 97.37 2.2 21.28 11.17 41.47 23.81 58.59 17.78 23.92 43.21 42.94 72.45 49.98 10.14 2.56 20.69 2.92 31.09 2.28 28.94-1.52 57.96-11.45 79.97-30.65 24.46-21.01 39.2-52.04 42.49-83.9 4.1901-36.07-9.65-73.03-34.2-99.39-24.61-26.74-61.77-42.14-98.12-38.56m-1432.7 64.28c-4.94 4.3-6.99 11.43-5.65 17.77 0.79 4.07 5.45 5.33 7.1 8.8701 1.7 3.3199 1.19 7.22 2.3 10.7 1.46 2.28 4.57 1.6 6.86 1.69 9.31-0.47 18.64 0.13 27.94-0.1 4.47-0.44 2.55-5.78 2.58-8.71 2.05-0.68 4.17-1.23 6.36-1.17 13.4-0.16 26.82 0.02 40.23-0.04-3.14-12.19-11.12-23.05-21.97-29.48-12.55-7.55-27.71-9.49-42.1-8.36-8.42 0.8099-17.24 2.9899-23.65 8.8299m7.85 43.92c-1.34 0.55-2.24 2.03-1.82 3.48 0.87 4.2401 1.45 8.52 2.19 12.79 0.4 2.17 1.65 5.01 4.31 4.83 9.03 0.05 18.06-0.11 27.09 0.02 1.78 0.19 3.99-0.56 4.32-2.56 0.34-4.66-0.01-9.38-0.61-14.01-0.28-2.4-2.11-4.8-4.69-4.83-7.35-0.4901-14.73-0.28-22.09-0.55-2.89 0.04-5.98-0.4-8.7 0.83m2.96 27.69c1.23 7.71 3.15 15.31 4.74 22.96 5.78-0.26 11.65-2 16.05-5.89 5.57-4.64 8.7-11.5 10.27-18.44-8.22-2.49-16.93-0.67-25.35-0.79-1.92 0.32-5.2-0.4-5.71 2.16z" />
    <path name="window" fill="red" d="m761.74 333.74c35.99-17.26 71.59-35.4 108.32-51.06 3.55 5.28 6.76 10.78 10.49 15.95 1.52 1.61 1.09 4.13-1 4.97-27.6 15.25-54.19 32.25-80.81 49.13-39.55 25.29-78.8 51.04-117.77 77.2-2.5699 1.51-4.79 4.07-7.9399 4.22-20.32 1.18-40.91 0.29-60.77-4.41-9.66-2.31-19.2-5.44-27.92-10.25 17.43-7.26 34.29-15.8 51.33-23.91 42.07-20.52 84.05-41.22 126.07-61.84z" />
    <path name="wheel" d="m400.52 554.77c16.11-2.07 32.43 1.17 47.76 6.04 16.88 5.65 32.73 14.83 45.27 27.56 13.46 13.39 22.88 30.48 28.4 48.57 4.27 14.58 7.38 29.86 5.87 45.12-2.82 33.36-20.55 65.52-48.26 84.58-17.46 12.21-38.37 18.86-59.47 20.77-14.34 1.58-28.78-0.85-42.54-4.81-19.26-5.61-37.61-15.12-52.29-28.91-11.58-10.83-20.57-24.47-25.64-39.51-6.29-18.35-6.98-38.24-4.18-57.32 2.85-19.74 9.07-39.34 20.43-55.88 8.57-12.65 20.2-23.16 33.53-30.6 15.68-8.8 33.35-13.49 51.12-15.61z" />
    <path name="wheel" d="m1473.5 554.78c20.64-2.54 41.58 2.73 60.15 11.58 28.09 13.52 49.28 39.48 58.69 69 5.83 19.58 6.63 40.54 3.05 60.62-3.6801 20.53-12.51 40.37-26.61 55.87-15.74 17.52-37.73 28.52-60.61 33.26-11.52 2.74-23.47 2.68-35.22 2.02-20.73-1.38-41.44-7.45-58.55-19.46-18.06-12.48-31.4-30.83-40.22-50.75-4.37-10.06-8.58-20.42-9.3999-31.47-3.1801-35.78 8.34-73.89 34.7-99.02 19.81-19.14 46.98-28.89 74.02-31.65z" />
</svg>