<?xml version="1.0" encoding="UTF-8"?>
<svg viewBox="0 0 663 311" xmlns="http://www.w3.org/2000/svg" xmlns:xlink="http://www.w3.org/1999/xlink">
    <defs>
        <linearGradient id="e" x1=".53125" x2=".49219" y2="1">
            <stop stop-color="#420c7c" offset=".019531" />
            <stop stop-color="#ba8cea" offset=".97266" />
        </linearGradient>
        <linearGradient id="gy" x1="1.7894" x2=".14035" y1=".52345" y2=".55469" gradientTransform="translate(-1.7382e-6 2.5433e-7)" xlink:href="#a" />
        <linearGradient id="b" xlink:href="#f" />
        <linearGradient id="gx" x1="2.161" x2="-.064522" y1=".45311" y2=".47656" gradientTransform="translate(-3.766e-6 -1.9121e-7)" xlink:href="#a" />
        <linearGradient id="gt" x1=".37056" x2="1.7716" y1=".40625" y2=".45312" xlink:href="#a" />
        <linearGradient id="gw" x1="1.4392" x2="-.093462" y1=".54687" y2=".51562" xlink:href="#f" />
        <linearGradient id="gv" x1=".029739" x2="2.1301" y1=".86065" y2=".18852" xlink:href="#a" />
        <linearGradient id="gu" x1="-.38095" x2="1.5238" y1=".96875" y2=".23438" xlink:href="#f" />
        <linearGradient id="gz" x1=".029748" x2="1.7621" y1="-.013154" y2=".039474" xlink:href="#a" />
        <linearGradient id="d" xlink:href="#c" />
        <linearGradient id="ea" xlink:href="#i" />
        <linearGradient id="he" x1="-.24779" x2="3.0442" y1=".39844" y2=".51562" xlink:href="#a" />
        <linearGradient id="ha" x1=".48088" x2=".6448" y1=".36643" y2=".60306" gradientTransform="scale(1)" spreadMethod="reflect" xlink:href="#f" />
        <linearGradient id="hd" x1="-.32648" x2="1.483" y1=".054712" y2=".42969" gradientTransform="scale(1)" xlink:href="#a" />
        <linearGradient id="hc" x1=".28624" x2=".70632" y1="-1.7221" y2="2.1111" gradientTransform="translate(-1.0367e-7 2.779e-6)" xlink:href="#a" />
        <linearGradient id="hb" x1=".37571" x2="1.0112" y1=".071597" y2="1.1786" gradientTransform="translate(9.4738e-7 1.8712e-6)" xlink:href="#a" />
        <linearGradient id="gj" x1=".080925" x2=".86705" y1=".078125" y2=".92188" xlink:href="#g" />
        <linearGradient id="gl" x1="-.086846" x2="3.1556" y1="1.7378" y2="-.053216" gradientTransform="scale(.45619 -2.1921)" xlink:href="#c" />
        <linearGradient id="gk" x1="-2.3569" x2=".67514" y1="1.473" y2="-.20177" xlink:href="#c" />
        <linearGradient id="gi" xlink:href="#g" />
        <linearGradient id="gf" x1=".12093" x2="1.7654" y1="1.8203" y2=".46738" gradientTransform="scale(.94173 1.0619)" xlink:href="#c" />
        <linearGradient id="gg" x1="-1.2128" x2=".92153" y1="1.135" y2="-.62091" xlink:href="#c" />
        <linearGradient id="gh" x1="1.6667" x2="-4.2667" y1=".41406" y2=".34375" xlink:href="#a" />
        <linearGradient id="gm" x1="-.10056" x2="3.1418" y1=".35171" y2="-1.4393" gradientTransform="scale(.45619 2.1921)" xlink:href="#c" />
        <linearGradient id="gn" x1="-.85608" x2="2.378" y1="-2.386" y2="-.67945" xlink:href="#c" />
        <linearGradient id="fb" x1="-.33334" x2=".86666" y1=".28125" y2=".74219" xlink:href="#a" />
        <linearGradient id="gs" x1="-.12429" x2="2.4068" y1=".7734" y2=".57031" xlink:href="#a" />
        <linearGradient id="fa" x1="-.88054" x2="2.1045" y1=".9844" y2="-.039062" xlink:href="#a" />
        <linearGradient id="go" x1="-.86012" x2="2.374" y1="-.91872" y2=".7878" gradientTransform="scale(1 -1)" xlink:href="#c" />
        <linearGradient id="gr" x1="-.37331" x2="-.32" y1=".96268" y2=".42537" spreadMethod="reflect" xlink:href="#i" />
        <linearGradient id="gp" x1="-.597" x2="2.3433" y1=".57812" y2=".67188" xlink:href="#c" />
        <linearGradient id="gq" x1=".084509" x2=".92958" y1=".96875" y2=".007812" xlink:href="#g" />
        <linearGradient id="hf" x1="-8.5714" x2="12.143" y1=".52344" y2=".49219" gradientTransform="translate(-1.2964e-6 -2.1731e-8)" xlink:href="#a" />
        <linearGradient id="hg" x1=".52788" x2=".5316" y1=".008001" y2=".488" spreadMethod="reflect" xlink:href="#h" />
        <linearGradient id="hu" x1="-.10056" x2="3.1418" y1=".64829" y2="2.4393" gradientTransform="scale(.45619 2.1921)" xlink:href="#c" />
        <linearGradient id="hw" x1=".12093" x2="1.7654" y1=".13207" y2="1.485" gradientTransform="scale(.94173 1.0619)" xlink:href="#c" />
        <linearGradient id="hv" x1="-1.2128" x2=".92153" y1="-.13499" y2="1.6209" xlink:href="#c" />
        <linearGradient id="eb" y1="1" y2="1" xlink:href="#f" />
        <linearGradient id="ht" x1="-.12429" x2="2.4068" y1=".2266" y2=".42969" xlink:href="#a" />
        <linearGradient id="hq" x1="-.85608" x2="2.378" y1="3.386" y2="1.6794" xlink:href="#c" />
        <linearGradient id="hs" x1="-.86012" x2="2.374" y1="1.9187" y2=".2122" gradientTransform="scale(1 -1)" xlink:href="#c" />
        <linearGradient id="hr" x1="-.086846" x2="3.1556" y1="-.73776" y2="1.0532" gradientTransform="scale(.45619 -2.1921)" xlink:href="#c" />
        <linearGradient id="hx" x1="-1.2128" x2=".92153" y1="-1.1317" y2=".62419" xlink:href="#c" />
        <linearGradient id="hy" x1=".12093" x2="1.7654" y1="-.82031" y2=".53262" gradientTransform="scale(.94173 1.0619)" xlink:href="#c" />
        <linearGradient id="ie" x1=".37056" x2="1.7716" y1=".59375" y2=".54688" xlink:href="#a" />
        <linearGradient id="ig" x1=".57031" x2=".40625" y2="1">
            <stop stop-color="#303030" stop-opacity=".992" offset="0" />
            <stop stop-color="#7a7a7a" stop-opacity=".996" offset="1" />
        </linearGradient>
        <linearGradient id="id" y1="1" y2="1" xlink:href="#g" />
        <linearGradient id="hz" x1="-.597" x2="2.3433" y1=".42188" y2=".32812" xlink:href="#c" />
        <linearGradient id="ic" x1=".080925" x2=".86705" y1=".92188" y2=".078125" xlink:href="#g" />
        <linearGradient id="ia" x1="-2.3569" x2=".67514" y1="-.47299" y2="1.2018" xlink:href="#c" />
        <linearGradient id="el" y1="1" y2="1" xlink:href="#c" />
        <linearGradient id="ib" x1=".076191" x2=".72381" y1=".046875" y2=".82812" xlink:href="#g" />
        <linearGradient id="hp" x1=".084509" x2=".92958" y1=".03125" y2=".99219" xlink:href="#g" />
        <linearGradient id="ed" x1="1.0209" x2=".50628" y1=".92187" y2=".078125" xlink:href="#h" />
        <linearGradient id="ee" x1=".040338" x2=".94482" y1="-.98987" y2=".22973" xlink:href="#h" />
        <linearGradient id="hh" x1=".17143" x2="-.085714" y1=".4375" y2=".41406" xlink:href="#h" />
        <linearGradient id="ec" x1=".50186" x2=".24907" y1=".58109" y2=".45946" xlink:href="#h" />
        <linearGradient id="hi" x1="-.4" x2="3.6" y1=".39062" y2=".26562" xlink:href="#a" />
        <linearGradient id="ef" x1=".054432" x2=".89421" y1=".0596" y2="1.192" gradientTransform="scale(1.0288 .97197)" xlink:href="#h" />
        <linearGradient id="hk" x1="1.2286" x2="-.34286" y1=".47403" y2=".47403" xlink:href="#f" />
        <linearGradient id="eg" x1="1.148" x2=".37516" y1="-.94735" y2=".18638" xlink:href="#f" />
        <linearGradient id="hl" x1="-.015053" x2="-.035146" y1="2.443" gradientTransform="scale(1.5083 .66301)" xlink:href="#i" />
        <linearGradient id="ho" x1="1.6667" x2="-4.2667" y1=".58594" y2=".65625" xlink:href="#a" />
        <linearGradient id="hn" x1="-.37331" x2="-.32" y1=".037315" y2=".57463" spreadMethod="reflect" xlink:href="#i" />
        <linearGradient id="ej" x1="-.40509" x2="1.962" y1=".13282" y2=".95312" gradientTransform="translate(-1.5053e-6 3.0951e-7)" xlink:href="#em" />
        <linearGradient id="eh" x1="1.0829" x2=".3653" y1=".099078" y2="1.1517" gradientTransform="scale(1.0288 .97197)" xlink:href="#f" />
        <linearGradient id="hj" x1=".97468" x2="-.025316" y1=".42208" y2=".4026" xlink:href="#f" />
        <linearGradient id="ei" gradientTransform="translate(1.0248e-6 1.8604e-7)" xlink:href="#f" />
        <linearGradient id="dy" x1=".63336" x2="1.3448" y1="-.62922" y2="-.62922" gradientTransform="scale(.90246 1.1081)" xlink:href="#f" />
        <linearGradient id="ge" x1=".12093" x2="1.7654" y1=".86793" y2="-.485" gradientTransform="scale(.94173 1.0619)" xlink:href="#c" />
        <linearGradient id="ep" x1="-.023808" x2=".97619" y1="1.322" y2="1.322" gradientTransform="scale(1)" xlink:href="#c" />
        <linearGradient id="fj" x1="-6.5338" x2="23.248" y1=".073805" y2=".16401" gradientTransform="scale(.36441 2.7442)" xlink:href="#a" />
        <linearGradient id="fk" x1=".68402" x2=".67286" y1="1.1552" xlink:href="#c" />
        <linearGradient id="fn" x1="-.16854" x2="-.11236" y1=".039067" y2=".86719" xlink:href="#a" />
        <linearGradient id="gd" x1="-1.2128" x2=".92153" y1="2.1317" y2=".37581" xlink:href="#c" />
        <linearGradient id="fo" x1="-1.6338" x2=".66705" y1=".068581" y2="1.1888" gradientTransform="scale(1.4631 .68348)" xlink:href="#a" />
        <linearGradient id="fm" x1="-.85075" x2=".89552" y1=".17969" y2=".24219" xlink:href="#c" />
        <linearGradient id="fl" x1="-2.381" x2="2.7143" y1=".44531" y2=".45312" xlink:href="#a" />
        <linearGradient id="fi" x1="-7.6854" x2="18.108" y1=".36719" y2=".44531" xlink:href="#a" />
        <linearGradient id="fh" x1="-1.8837" x2="1.2558" y1=".32812" y2=".41406" xlink:href="#a" />
        <linearGradient id="em">
            <stop stop-color="#f00" stop-opacity=".58" offset="0" />
            <stop stop-color="#fff" stop-opacity="0" offset="1" />
        </linearGradient>
        <linearGradient id="a">
            <stop offset="0" />
            <stop stop-color="#fff" offset="1" />
        </linearGradient>
        <linearGradient id="f">
            <stop stop-color="#fff" stop-opacity=".902" offset="0" />
            <stop stop-color="#fff" stop-opacity="0" offset="1" />
        </linearGradient>
        <linearGradient id="c">
            <stop stop-opacity=".902" offset="0" />
            <stop stop-opacity="0" offset="1" />
        </linearGradient>
        <linearGradient id="h">
            <stop stop-color="#3f3a4a" offset="0" />
            <stop stop-color="#afaa9d" offset="1" />
        </linearGradient>
        <linearGradient id="dw">
            <stop stop-color="#ff0" stop-opacity=".58" offset="0" />
            <stop stop-color="#fff" stop-opacity="0" offset="1" />
        </linearGradient>
        <linearGradient id="i">
            <stop stop-opacity=".38" offset="0" />
            <stop stop-opacity="0" offset="1" />
        </linearGradient>
        <linearGradient id="dz">
            <stop stop-color="#dddaff" stop-opacity=".82" offset="0" />
            <stop stop-color="#6a72ff" stop-opacity=".584" offset="1" />
        </linearGradient>
        <linearGradient id="g">
            <stop stop-color="#ffff97" offset="0" />
            <stop stop-color="#ffffe7" offset="1" />
        </linearGradient>
        <linearGradient id="fc" x1="-1.6207" x2="1.8966" y1=".125" y2=".53125" xlink:href="#a" />
        <linearGradient id="fd" x1=".40559" x2=".26573" y1=".53129" y2=".63282" xlink:href="#dw" />
        <linearGradient id="fg" x1="-.6881" x2=".008444" y1=".87398" y2=".87398" gradientTransform="scale(1.5083 .66301)" xlink:href="#i" />
        <linearGradient id="eo" x1="-1.1801" x2="1.5272" y1=".23374" y2=".41553" gradientTransform="matrix(1.1081 0 0 .90246 1.0248e-6 1.8604e-7)" xlink:href="#a" />
        <linearGradient id="dv" x1="-2.931" x2="2.1168" y1="-2.6292" y2="-2.7993" xlink:href="#a" />
        <linearGradient id="fe" y1="-1.07" y2="-1.07" xlink:href="#f" />
        <linearGradient id="en" x1=".4498" x2=".44981" y1="-.72728" y2="1.3864" xlink:href="#c" />
        <linearGradient id="ff" x1="1.1608" x2="-.13986" y1=".40627" y2=".42188" xlink:href="#a" />
        <linearGradient id="fp" x1="-.46389" x2="1.0824" y1=".027844" y2=".78067" gradientTransform="scale(.96289 1.0385)" xlink:href="#a" />
        <linearGradient id="ev" x1=".24662" x2="2.9595" y1="-4.2768" y2="-4.3533" xlink:href="#a" />
        <linearGradient id="fz" x1=".23772" x2="2.9505" y1="4.512" y2="4.4356" gradientTransform="scale(1)" xlink:href="#a" />
        <linearGradient id="fy" x1=".27262" x2="2.8184" y1="6.8014" y2="6.8016" gradientTransform="translate(7.2043e-8 1.2358e-6)" xlink:href="#f" />
        <linearGradient id="fq" x1=".92776" x2="1.5998" y1="-.012471" y2="-.012471" gradientTransform="scale(.65812 1.5195)" xlink:href="#c" />
        <linearGradient id="fx" x1=".27274" x2="2.8185" y1="-12.737" y2="-12.737" gradientTransform="translate(-5.5589e-7 -2.589e-6)" xlink:href="#f" />
        <linearGradient id="fw" x1=".93706" x2="-.42657" y1=".070312" y2="1.3359" xlink:href="#dw" />
        <linearGradient id="dx" x1=".43662" x2=".69014" y1=".17188" y2=".41406" xlink:href="#dz" spreadMethod="reflect" />
        <linearGradient id="eu" x1=".10588" x2=".92941" y1=".038961" y2=".93506" xlink:href="#dz" />
        <linearGradient id="ew" x1=".008904" x2="1.0089" y1="-8.7888" y2="-8.7888" gradientTransform="scale(1)" xlink:href="#c" />
        <linearGradient id="ga" x1="-7.0909" x2="4.0909" y1=".39844" y2=".39844" xlink:href="#a" />
        <linearGradient id="gc" x1=".076191" x2=".72381" y1=".95312" y2=".17188" xlink:href="#g" />
        <linearGradient id="ez" x1=".48699" x2=".56877" y1="1.8438" y2="-.59375" xlink:href="#a" />
        <linearGradient id="ey" x1=".51301" x2=".52416" y1=".83334" y2="-1.4" xlink:href="#a" />
        <linearGradient id="gb" x1="-.66667" x2="12.889" y1=".3125" y2=".32031" xlink:href="#a" />
        <linearGradient id="ex" x1=".52788" x2=".54275" y1="1.1" y2="-1.9333" xlink:href="#f" />
        <linearGradient id="fv" x1="1.3496" x2="-.1049" y1=".71094" y2=".6875" xlink:href="#a" />
        <linearGradient id="ft" x1="-.31069" x2="-.12621" y1=".070311" y2="1.5781" xlink:href="#a" />
        <linearGradient id="fs" x1="-1.7692" x2=".79487" y1=".054683" y2=".90625" xlink:href="#a" />
        <linearGradient id="fr" x1="-.17948" x2="2.3846" y1=".34375" y2="1.0078" xlink:href="#a" />
        <linearGradient id="fu" x1=".15068" x2="1.0274" y1=".012739" y2=".95541" xlink:href="#dz" />
        <linearGradient id="et" x1=".53903" x2=".54275" y1=".25" y2="1.0833" xlink:href="#c" />
        <linearGradient id="es" x1=".51672" x2=".51301" y1="1.5833" y2="-3.3333" xlink:href="#c" />
        <linearGradient id="eq" x1="-.17482" x2="1.0979" y1=".4375" y2=".35156" xlink:href="#a" />
        <linearGradient id="er" x1=".513" x2=".52044" y2=".97727" xlink:href="#f" />
        <radialGradient id="if" cx=".50385" cy=".48443" r=".89979" xlink:href="#dw" />
        <radialGradient id="hm" cx=".48837" cy=".49182" r="2.103" gradientTransform="translate(-9.396e-8 -1.7898e-6)" xlink:href="#dw" />
        <radialGradient id="ek" cx=".5072" cy=".498" r="1.1394" gradientTransform="translate(2.8358e-6 -4.2267e-8)" xlink:href="#em" />
    </defs>
    <g fill-rule="evenodd">
        <g stroke-width=".781">
            <path name="1" d="m324.39 282zm-0.298-253.22zm251.96-14.919c66.942 0.02197 86.049 62.498 86.049 141.45 0 78.947-16.475 132.84-80.441 140.53-25.492 2.887-41.396 0.67297-63.461 1.374-32.203-0.396-45.919 0.69202-63.247-3.431-18.763-3.856-70.317 2.453-176.58 3.422 0-2.952 0 0-0.42499-0.203-13.072 0.51697-158.22-3.367-188.07-4.63l-2.198-1.024c-67.364-2.638-72.503-63.776-74.486-67.069-12.937-39.729-12.793-51.739-12.793-68.402 0-16.664-0.14399-29.488 12.695-69.093 1.8855-3.167 6.9224-64.707 75.283-67.448 30.844-1.368 176.2-6.073 189.95-5.608 106.94 0.91895 158.8 6.51 177.17 2.524 16.937-4.251 30.653-3.157 62.856-3.556 22.065 0.69702 32.96-1.616 57.708 1.168z" />
            <path name="2" d="m235.41 153.7c0.42099 18.305 1.172 96.83 47.649 116.23-23.474 8.855-162.49 1.688-243.73-28.678-14.666-26.142-19.397-67.983-19.608-86.576-0.2109-18.592 4.5204-60.431 19.186-86.575 81.245-30.362 220.26-37.531 243.73-28.674-46.478 19.396-47.227 97.922-47.227 114.27z" fill="url(#e)" stroke="url(#b)" />
            <path d="m509.87 65.254l-56.268-19.886 0.859-9.007 14.733 1.776 45.422 16.948-4.5201 0.226-0.226 9.943z" fill="url(#ed)" stroke="url(#d)" />
            <path d="m299.36 36.512c-3.037 0-15.307-13.253-17.008-15.514-2.423-3.571-4.217-4.218-4.217-7.169 106.26 0.96802 161.3 6.661 179.43 2.951 8.222 3.163 5.06 6.958 3.373 22.561-2.53 2.193-17.836-0.211-20.873-0.211-49.759 0-86.024-2.319-135.78-2.319l-4.92-0.299z" fill="url(#e)" stroke="url(#d)" />
            <path d="m299.51 36.512c-3.036 0-15.261-13.412-17.156-15.514-2.87-2.975 152.44 1.601 179.85 1.264 1.475 4.006 0.42096 1.476-1.266 17.079-2.53 2.193-17.836-0.211-20.873-0.211-49.759 0-86.024-2.319-135.78-2.319l-4.772-0.299z" fill="url(#e)" stroke="url(#ea)" />
            <path d="m433.29 25.159c-1.321 0-8.349-0.76605-8.349-2.087v-0.89502c0-1.321 1.362-2.087 2.684-2.087l26.836 0.298c1.321 0 2.683 0.46802 2.683 1.789v0.89502c0 1.321-3.151 2.087-4.473 2.087h-19.381z" fill="url(#en)" stroke="url(#er)" />
            <path d="m335.65 43.555c-1.818 0-31.178-4.729-29.361-4.729 37.372 0 108.06-1.231 144.32 0.64801 2.709 0.11798 3.39 3.298 2.981 5.068-1.788 8.051-5.048 7.32-6.8571 7.157-36.478-3.578-69.37 10.815-101.8-3.927l-9.276-4.217z" fill="url(#ey)" stroke="url(#ex)" />
            <path d="m460.71 35.888c24.748 0.69605 51.584-1.889 76.035 13.418 20.623-8.846 64.802 8.548 95.862 16.399-1.987-7.752-10.387-14.461-7.305-22.363 0.99402-0.64502 1.541-2.633 4.771-0.596-5.765-10.735-29.122-18.487-45.919-26.835-24.748-2.783-44.13-1.392-66.194-2.088-32.203 0.39795-45.919-0.695-62.617 3.28 5.367 1.491 8.647 4.771 5.367 18.785z" fill="url(#e)" stroke="url(#d)" />
            <path d="m460.71 35.888c24.748 0.69605 51.584-1.889 76.035 13.418 20.623-8.846 64.802 8.548 95.862 16.399-1.987-7.752-5.914-12.672-10.585-18.189-21.369-8.099-78.419-22.263-100.48-22.959-22.513-0.198-52.255-2.236-60.269-2.758 1.325 2.65 1.081 7.082-0.55896 14.089z" fill="url(#hl)" stroke="url(#fg)" />
            <path d="m345.35 46.928c-1.816 0-11.359-8.946-9.542-8.946 37.372 0 78.546-0.38702 114.8 1.492 2.709 0.11798 3.39 3.298 2.981 5.068-1.788 8.051-5.048 7.32-6.8571 7.157-36.478-3.578-64.009-4.771-101.38-4.771z" fill="url(#ez)" stroke="url(#b)" />
            <path d="m458.35 54.859v-3.841h12.655l-0.226-5.4239h-16.045s-1.807 9.039 3.616 9.265z" fill="url(#ef)" stroke="url(#eh)" />
            <path d="m454.96 45.82l4.293 0.226 0.226-2.034h9.944l1.13-4.519-2.26-1.808h-5.876l-0.452 3.163-7.231 0.452 0.226 4.52z" fill="url(#ee)" stroke="url(#eg)" />
            <path d="m465.33 36.516l49.855 18.856 27.485 2.236-12.145-9.268-33.557-10.226-31.638-1.598z" fill="url(#ec)" stroke="url(#d)" />
            <path d="m286.15 43.978l-3.373-3.585 16.024-4.006 66.837 17.079-2.741 7.379c-25.161-9.418-50.743-12.721-76.747-16.867z" fill="url(#ev)" stroke="url(#ew)" />
            <path d="m304.28 36.811c-3.038 0 18.973-3.169 30.994-3.163 4.133 0.074039 93.825 0.336 125.66 2.108 0.633 0.84301 0.422 2.742 0 3.585-2.53 2.193-17.836-0.211-20.873-0.211-49.759 0-86.024-2.319-135.78-2.319z" fill="url(#es)" stroke="url(#et)" />
            <path d="m299.26 36.341c15.008-1.541 23.041-1.315 24.898-7.305 7.757-25.989 7.852-28.924 26.836-28.626l-11.629 32.502c-2.882-0.10004-6.063 0.099003-6.858 3.28l11.629 11.032-44.876-10.883z" fill="url(#eq)" stroke="url(#d)" />
            <path d="m324.15 29.036c7.757-25.989 7.852-28.924 26.836-28.626l-11.629 32.502c-2.882-0.10003-6.063 0.099003-6.858 3.28 0 0-10.206-1.166-8.349-7.156z" fill="url(#e)" stroke="url(#b)" />
            <path d="m510.16 246.01l-56.268 19.887 0.859 9.012 14.733-1.78 45.422-16.945-4.5201-0.231-0.226-9.943z" fill="url(#ed)" stroke="url(#d)" />
        </g>
        <rect transform="matrix(.92242 0 0 .92242 55.055 -125.45)" x="337.43" y="270.71" width="157.33" height="72.921" fill="url(#hg)" />
        <g stroke-width=".781">
            <path d="m371.93 140.31l35.704 2.486c3.842-0.67896-2.711-2.712 17.175-2.486 2.711 0 29.829-1.13 35.479-1.356 16.872-2.26 29.451-8.136 45.872-9.492 1.055-23.275 1.432-42.258 3.842-65.759l-38.642-14.237-105.31-0.226 8.136 9.717-2.26 81.353z" fill="url(#gt)" stroke="url(#b)" />
            <path d="m371.93 137.82s46.552 1.808 56.495 1.356c9.942-0.45196 52.878-4.972 54.686-26.665 1.808-21.694 1.356-30.733 1.356-30.733 0.90295-17.174-29.377-26.665-46.552-26.213-17.174 0.45099-9.038 9.942-9.038 9.942l-56.947 72.313z" fill="url(#gj)" stroke="url(#gi)" />
            <path d="m19.718 155.71c-0.2109 18.594 4.5204 60.435 19.187 86.576-5.227 0.24005-22.158-12.268-25.818-18.134-12.784-39.378-12.64-52.311-12.64-68.659m19.271 0.181c-0.2109-18.592 4.5204-60.431 19.187-86.575-5.227-0.24699-22.158 12.265-25.818 18.138-12.784 39.376-12.64 52.302-12.64 68.655" fill="url(#fc)" stroke="url(#b)" />
            <path d="m235.41 154.7c0.42099 18.305 1.172 96.83 47.649 116.23 0.98401 0.83899 7.03-2.537 2.954-4.216-42.919-19.823-42.59-94.133-42.801-112.72-0.21101-18.593 0.304-82.781 41.536-110.19 5.341-5.482-2.813-3.373-2.111-3.373-46.477 19.396-47.227 97.922-47.227 114.27z" stroke="url(#d)" />
            <g fill="none">
                <rect transform="matrix(.92242 0 0 .92242 55.055 -125.45)" x="155.3" y="261.28" width="5.8186" height="4.2023" stroke="url(#fy)" />
                <rect transform="matrix(.92242 0 0 .92242 55.055 -125.45)" x="155.3" y="343.38" width="5.8186" height="4.2023" stroke="url(#fx)" />
            </g>
        </g>
        <g fill="none" stroke-linecap="square" stroke-linejoin="round" stroke-width=".977">
            <path d="m14.337 96.465c-0.577 0-2.3333 3.354-2.6193 4.66-2.7229 7.723-3.5523 13.298-4.9389 21.272-0.5971 5.799-4.4871 28.994-4.6841 30.599 0.12171 0.97498 0.892-0.32599 0.9989-0.49298 2.5633-4 2.39-9.079 3.3363-13.664 1.3699-6.784 2.6886-17.154 4.9419-26.205 2.408-9.822 6.2039-20.356 2.3688-19.745" stroke="url(#b)" />
            <path d="m14.337 214.48c-0.577 0-2.3333-3.349-2.6193-4.659-2.7229-7.72-3.5523-13.301-4.9389-21.271-0.5971-5.802-4.4871-28.993-4.6841-30.598 0.12171-0.97504 0.892 0.32495 0.9989 0.492 2.5633 4.001 2.39 9.081 3.3363 13.669 1.3699 6.78 2.6886 17.148 4.9419 26.206 2.408 9.814 6.2039 20.348 2.3688 19.739" stroke="url(#fe)" />
        </g>
        <g stroke-width=".781">
            <path d="m38.904 242.29c3.947 9.963 10.078 33.023 48.823 49.285-67.364-2.638-72.81-64.486-74.64-67.419" fill="url(#ff)" stroke="url(#b)" />
            <path d="m38.904 242.29c3.947 9.963 10.078 33.023 48.823 49.285-57.823-16.659-62.374-54.644-64.204-57.586" fill="url(#fd)" stroke="#ff0" />
        </g>
        <path d="m36.85 258.9c0.003002-2.601-2.101-4.704-4.696-4.704-2.5956 0-4.6989 2.103-4.6965 4.704-0.00239 2.592 2.1009 4.695 4.6965 4.695 2.595 0 4.699-2.103 4.696-4.695z" fill="url(#hm)" />
        <g stroke-width=".781">
            <path d="m299.08 274.89c-8.855-2.362-14.43-3.542-16.025-3.957-23.474 8.855-162.49 1.688-243.73-28.678 6.84 25.514 27.125 41.49 50.599 50.345 29.847 1.264 175 5.147 188.07 4.631 5.061-8.431 13.073-16.023 21.085-22.341h-3.1e-5z" fill="url(#e)" stroke="url(#fk)" />
            <path d="m299.08 274.89c-8.855-2.362-14.43-3.542-16.025-3.957-23.474 8.855-162.49 1.688-243.73-28.678 2.202 4.427 4.354 13.651 10.117 20.403 59.788 21.502 136.63 24.97 233.19 27.83 8.012-8.016 8.434-9.28 16.446-15.598h-3.1e-5z" fill="url(#e)" stroke="url(#b)" />
            <path d="m299.65 274.75c-3.037 0-15.306 13.255-17.008 15.515-2.423 3.57-4.216 4.216-4.216 7.168 106.26-0.96899 161.3-6.66 179.43-2.952 8.223-3.164 5.061-6.955 3.374-22.562-2.53-2.187-17.837 0.21198-20.874 0.21198-49.759 0-86.024 2.324-135.78 2.324l-4.92 0.295z" fill="url(#e)" stroke="url(#d)" />
            <path d="m38.606 68.948c3.947-9.962 10.078-33.02 48.823-49.282-67.364 2.639-72.81 64.484-74.64 67.421" fill="url(#fv)" stroke="url(#b)" />
            <path d="m38.606 68.948c3.947-9.962 10.078-33.02 48.823-49.282-57.823 16.653-62.374 54.645-64.204 57.582" fill="url(#fw)" stroke="#ff0" />
        </g>
        <path d="m36.552 52.339c0.001999 2.594-2.101 4.7-4.696 4.7-2.5959 0-4.6992-2.106-4.6966-4.7-0.002609-2.596 2.1007-4.702 4.6966-4.702 2.595 0 4.698 2.106 4.696 4.702z" fill="url(#if)" />
        <g stroke-width=".781">
            <path d="m296.78 37.354c-8.856 2.36-14.43 3.533-16.025 3.955-23.474-8.855-162.49-1.687-243.73 28.675 6.84-25.513 27.125-41.487 50.599-50.342 29.847-1.265 175-5.152 188.07-4.637 5.06 8.434 13.072 16.024 21.084 22.349z" fill="url(#e)" stroke="url(#d)" />
            <path d="m298.78 36.354c-8.856 2.36-14.43 3.533-16.025 3.955-23.474-8.855-162.49-1.687-243.73 28.675 2.202-4.429 4.354-13.656 10.117-20.402 59.787-21.506 136.63-24.971 233.19-27.831 8.012 8.013 8.434 9.278 16.446 15.603z" fill="url(#e)" stroke="url(#b)" />
            <path d="m298.24 50.963c-9.162 0-16.445 3.911-24.457 20.241-18.133 29.237-21.085 133.53 0 167.4 9.277 21.815 19.09 21.511 28.674 20.662l17.931-3.339c1.245-10.285 2.25-20.874 3.045-31.574 0.79498-10.7-0.82501-18.403-5.175-29.878 9.681-9.648 7.583-23.623 7.654-33.916 0.069977-10.292-0.012024-20.278-0.21802-29.752-0.82098-37.898-3.61-67.601-6.507-75.96l-20.947-3.889z" fill="url(#fh)" stroke="url(#d)" />
            <path d="m350.68 212.75c0 7.573-1.869 13.716-4.174 13.716-2.306 0-18.189 2.5-18.487-15.211 1.193-17.71 16.181-12.222 18.487-12.222 2.305 0 4.174 6.134 4.174 13.717z" fill="url(#ft)" stroke="url(#d)" />
        </g>
        <path d="m350.68 212.75c0-7.583-1.869-13.717-4.174-13.717-2.306 0-4.175 6.134-4.175 13.717 0 7.573 1.869 13.716 4.175 13.716 2.305 0 4.174-6.143 4.174-13.716z" fill="url(#fs)" stroke="url(#b)" />
        <path d="m350.68 212.6c0-3.533-1.268-6.411-2.833-6.411-1.564 0-2.832 2.878-2.832 6.411 0 3.542 1.268 6.411 2.832 6.411 1.565 0 2.833-2.869 2.833-6.411z" fill="#000080" />
        <g stroke-width=".781">
            <path d="m318.18 193.53l17.443 6.559-0.447 20.727-15.505 5.811-7.007-17.148 5.516-15.949z" fill="url(#fn)" stroke="url(#d)" />
            <path d="m319.08 211.11c0 12.268-3.461 17.738-12.076 21.916-8.316 0-18.934-9.353-18.934-21.621s12.109-19.832 20.425-19.832c5.633 2.094 10.585 7.269 10.585 19.537z" fill="url(#fp)" stroke="url(#fq)" />
            <path d="m284.49 211.41c-0.21201 10.562 13.126 26.925 21.865 25.652 4.59-0.65497 2.635-4.437 0.647-4.031-8.316 0-18.934-9.353-18.934-21.621s12.109-19.832 20.425-19.832c2.184-1.273 2.759-4.335 0.65302-4.446-13.133-0.67401-24.235 15.192-24.656 24.278z" fill="url(#fm)" stroke="url(#d)" />
            <path d="m319.08 211.11c0 12.268-3.461 17.738-12.076 21.916 11.661 0.591 13.567-1.153 13.715-21.769-0.14801-21.068-3.992-21.769-12.224-19.684 5.633 2.094 10.585 7.269 10.585 19.537z" fill="url(#fo)" stroke="url(#d)" />
            <path d="m337.71 212.09c0.521 4.124 2.282 48.658 12.242 9.4 0.006012 1.697 0.232 8.68-0.15701 11.263-0.78 5.174-2.83 8.255-6.867 8.181-8.076-0.14703-10.139-12.055-10.139-28.401 0-16.336 4.15-29.738 14.462-30.034l0.084 2.703c-8.124 3.127-9.625 18.716-9.625 26.888z" fill="url(#fr)" stroke="url(#b)" />
            <path d="m342.97 135.35l0.382 39.487c7.275 0.028015 0.83902 24.093 8.024 60.824l-1.686-149.27c-2.539 23.478 0.58899 48.743-6.72 48.962z" fill="url(#fi)" stroke="url(#d)" />
            <path d="m325.93 131.65v47.108l19.979-5.36v-36.977l-19.979-4.771z" fill="url(#fj)" stroke="url(#d)" />
            <path d="m326.23 146.27c-2.478 0-4.473 1.994-4.473 4.472v8.945c0 2.478 1.995 4.473 4.473 4.473 4.97 0 11.927-2.591 15.505-4.771 2.483-1.65 2.262-7.002 0-8.945-3.578-2.776-10.535-4.174-15.505-4.174z" stroke="url(#b)" />
            <path d="m338.15 170.87c0.522 1.642 3.28 4.621 4.473 4.621 1.321 0 1.341-0.91302 1.341-2.232v-34.592c0-1.322 0.076996-3.119-1.341-2.535-1.607 0.78699-3.389 1.711-4.25 3.28-1.079 2.043-0.67502 30.215-0.22302 31.458z" fill="url(#fl)" stroke="url(#d)" />
            <path d="m269.56 154.44c1.973-91.871 27.161-89.966 49.337-97.409-5.969 7.413-4.71 65.506-4.639 98.252 0.069 31.915-3.558 99.343 5.061 95.718-27.313 0.27698-51.321-23.42-49.759-96.561z" fill="none" stroke="url(#b)" />
            <path d="m266.55 140.35c0 2.693 3.08 7.884 3.651-1.38 0.32498-5.032 0.681-9.727 1.142-14.105 0.92099-8.755 1.992-16.285 3.646-22.674 3.196-12.752 10.692-23.41 9.034-24.692-4.379-3.665-17.474 37.184-17.473 62.851z" fill="url(#ep)" stroke="url(#ep)" />
            <path d="m266.13 169.72c0-2.693 3.081-7.884 3.652 1.377 0.324 5.037 0.68002 9.732 1.141 14.113 0.92099 8.754 1.992 16.281 3.646 22.673 3.196 12.748 10.693 23.411 9.034 24.694-4.379 3.661-17.473-37.193-17.473-62.857z" fill="url(#d)" stroke="url(#d)" />
            <path d="m630.67 41.603s-3.578-2.088-5.068 0.89398c-1.492 2.982-1.79 2.982 8.349 25.644 5.068 11.33 8.274 18.113 11.74 25.866 2.87 15.803 4.808 48.677 4.957 61.499-0.14899 12.821-2.087 45.699-4.957 61.5-3.466 7.748-6.672 14.537-11.74 25.865-10.139 22.664-9.841 22.664-8.35 25.643s5.069 0.89502 5.069 0.89502" fill="#7f00ff" stroke="url(#b)" />
            <path d="m662.15 155.54c0 78.946-16.186 132.54-84.326 140.42 14.307-1.743 50.923-21.289 53.236-26.704 10.563-23.411 20.351-73.332 20.351-112.8 0-39.475-7.455-92.96-20.568-114.38-7.626-11.697-25.554-17.575-46.512-27.118 61.314 4.362 77.819 61.634 77.819 140.58z" fill="url(#e)" stroke="url(#b)" />
            <path d="m536.49 47.167c17.148-6.466 62.971 7.73 94.457 16.024 26.425 61.846 20.381 124.54 0.84399 183.01-31.486 8.856-73.093 26.142-94.458 15.184 27.41-17.434 22.912-72.014 22.771-107.95-0.13898-35.463 4.498-83.494-23.614-106.26z" fill="url(#e)" stroke="url(#hj)" />
            <path d="m461 275.38c24.749-0.70099 51.584 1.891 76.034-13.422 20.624 8.846 64.804-8.55 95.864-16.4-1.988 7.757-10.387 14.463-7.306 22.368 0.99396 0.646 1.54 2.629 4.771 0.591-5.764 10.737-29.122 18.485-45.919 26.833-24.748 2.786-44.13 1.393-66.195 2.094-32.202-0.39703-45.918 0.69202-62.616-3.284 5.367-1.485 8.648-4.769 5.367-18.78z" fill="url(#e)" stroke="url(#d)" />
            <path d="m461 275.38c24.749-0.70099 51.584 1.891 76.034-13.422 20.624 8.846 64.804-8.55 95.864-16.4-1.988 7.757-5.914 12.674-10.585 18.19-21.37 8.099-78.42 22.267-100.49 22.959-22.511 0.203-52.255 2.241-60.268 2.758 1.325-2.647 1.081-7.084-0.55902-14.085z" fill="url(#e)" stroke="url(#b)" />
            <path d="m536.49 47.167c11.334-3.336 14.965-2.408 23.49-0.67505 18.078 63.04 11.438 156.14 0.24799 216.4-7.036 3.192-12.562 4.234-22.895-1.512 27.41-17.434 22.912-72.014 22.771-107.95-0.13898-35.463 4.498-83.494-23.614-106.26z" fill="url(#gu)" stroke="url(#b)" />
            <path d="m458.64 256.4v3.847h12.655l-0.226 5.424h-16.045s-1.807-9.04 3.616-9.271z" fill="url(#ef)" stroke="url(#eh)" />
            <path d="m455.25 265.44l4.294-0.23 0.226 2.038h9.943l1.13 4.52-2.26 1.808h-5.875l-0.452-3.164-7.232-0.452 0.226-4.52z" fill="url(#ee)" stroke="url(#eg)" />
            <path d="m436.29 96.854l0.421-23.614-9.277-10.543s-29.096-5.904-37.108-5.904c-8.013 0-16.025 2.109-16.025 2.109l-2.53 78.437s3.691-1.793 5.219-3.795c2.612 1.684 9.329 1.264 13.336 1.264 8.012 0 37.108-5.903 37.108-5.903l9.277-10.542-0.421-23.614" fill="url(#gc)" stroke="url(#d)" />
            <path d="m471.47 113.19c-3.004 0-4.18-5.696-4.18-8.7v-17.061c0-3.006 1.062-8.701 4.067-8.701h8.135c3.005 0 5.424 1.854 5.424 4.859-3.842 1.431-5.65 20.601 0 25.309 0.025024 3.157-2.306 4.294-5.311 4.294h-8.135z" fill="url(#gp)" stroke="url(#gk)" />
            <g fill="none">
                <path d="m377.05 126.37v-30.151h34.578v24.669c-11.736 1.194-23.685 2.178-34.578 5.482z" stroke="url(#gf)" />
                <path d="m411.41 120.68v-24.669h24.88l0.21 23.826-25.09 0.843z" stroke="url(#gd)" />
                <path d="m377.05 65.73v30.151h34.578v-24.669c-11.736-1.194-23.685-2.178-34.578-5.482v1.5e-5z" stroke="url(#ge)" />
                <path d="m411.41 71.424v24.668h24.88l0.21-23.825-25.09-0.843v1.5e-5z" stroke="url(#gg)" />
                <path d="m436.05 73.12c5.326 0.21295 10.652 0.42596 15.978 0.63898 4.475-1.491 7.99-3.941 11.505-7.35-11.398-5.327-23.116-7.137-36.112-7.35-0.319 5.965 3.515 10.013 8.629 14.061z" stroke="url(#gm)" />
            </g>
            <path d="m500.96 80.65l2.26-12.203-21.694-0.678 6.554 15.818 12.88-2.937z" fill="url(#gs)" stroke="url(#b)" />
        </g>
        <path d="m469.61 79.192c4.473 0.21301 8.947 0.42603 13.422 0.63904 2.29-14.7-39.522-24.767-55.128-21.571l-0.639 2.077c31.638-2.184 42.983 7.936 42.345 18.855z" fill="url(#go)" />
        <rect transform="matrix(.92242 0 0 -.92242 52.055 -39.452)" x="482.25" y="-135.22" width="9.4318" height="18.496" rx="2.4498" ry="2.4498" fill="url(#fa)" stroke="url(#b)" stroke-width=".727" />
        <path d="m435.83 119.06c5.326-0.21296 10.652-0.42701 15.978-0.63995 4.475 1.491 7.99 3.942 11.505 7.35-11.398 5.327-23.116 7.138-36.112 7.351-0.319-5.965 3.515-10.014 8.629-14.061z" fill="none" stroke="url(#gl)" stroke-width=".781" />
        <path d="m469.38 112.99c4.473-0.21295 8.947-0.42597 13.422-0.63898 2.29 14.701-39.522 24.767-55.128 21.572l-0.639-2.078c31.638 2.184 42.984-7.936 42.345-18.855z" fill="url(#gn)" />
        <g stroke="url(#b)" stroke-width=".781">
            <path d="m494.97 88.895c10.734-1.92 13.777-11.294 3.955-12.089-8.167-0.65398-12.655 3.276-17.175 11.863 0 0-0.22601 7.344-0.112 7.966-0.11401 0.62103 0.112 7.965 0.112 7.965 4.52 8.588 7.63 15.055 15.819 14.801 10.952-0.34295 4.972-9.943-2.712-15.817l0.113-14.689z" fill="url(#gq)" />
            <path d="m440.63 50.142c10.358 7.72 24.411 9.329 34.801 15.366 5.525 3.271 9.115 10.584 8.587 18.079 1.206-0.90399 2.41-1.808 3.616-2.712-1.13-8.701-6.188-17.159-13.559-20.339-18.386-7.994-20.677-6.251-19.66-21.693-3.314-0.151-5.951 0.15003-9.265 0-1.506 3.766-3.013 7.532-4.52 11.299z" fill="url(#fb)" />
        </g>
        <path d="m492.87 18.734c-0.49701-3.207-6.273-4.975-12.902-3.947-6.63 1.027-11.601 4.458-11.104 7.665 0.49701 3.207 6.273 4.974 12.902 3.947 6.63-1.026 11.601-4.459 11.104-7.665z" fill="url(#e)" stroke="#00007f" />
        <g stroke-width=".781">
            <path d="m371.34 256.85l3.035-6.235c-0.85202-32.442-2.502-64.874-2.556-97.313-0.052002-31.425 1.492-62.852 2.237-94.278l-3.995-6.071-3.995-0.32-7.497 102.19 7.178 102.19 5.593-0.157z" fill="url(#hf)" stroke="url(#ea)" />
            <path d="m374.38 250.62c-0.85202-32.442-2.502-64.874-2.556-97.313-0.052002-31.425 1.492-62.852 2.237-94.278l-3.995-6.071c2.611 33.555-0.90302 67.111-0.79901 100.67-0.053009 34.353 2.131 68.713 1.758 103.06l3.355-6.069z" />
            <path d="m465.62 274.75l49.855-18.863 27.484-2.232-12.143 9.27-33.557 10.22-31.639 1.605z" fill="url(#ec)" stroke="url(#d)" />
            <path d="m459.23 33.141l0.319 5.113s67.752-0.89001 82.133 19.245c16.96 26.414 15.891 95.398 15.484 95.972-7.494 25.531-1.105 83.044-16.795 100.24-23.391 22.655-80.183 20.718-80.183 20.718l0.3199 1.595s64.876 4.474 85.009-22.691c20.134-27.165 15.34-77.659 16.299-99.707 0.95898-22.051 0.95898-93.318-25.886-106.42-26.845-13.103-76.7-13.103-76.7-14.062z" fill="url(#hi)" stroke="url(#d)" />
            <path d="m505.57 147.55s-41.226-5.433-49.215-5.433c-7.99 0-9.269 1.278-9.588 11.505-0.31995 10.227-0.31995 15.66 9.907 15.341 10.227-0.32001 49.535-7.032 49.535-7.032l-0.639-14.381z" fill="url(#gv)" stroke="url(#b)" />
            <path d="m468.81 143.4s-4.474-1.278-12.463-1.278c-7.99 0-9.269 1.278-9.588 11.505-0.31995 10.227-0.31995 15.66 9.907 15.341 5.753-0.32001 7.351-0.96002 11.824-1.279l0.32-24.289z" fill="url(#gw)" stroke="url(#b)" />
        </g>
        <rect transform="matrix(.92242 0 0 .92242 55.055 -125.45)" x="466.92" y="294.93" width="8.3151" height="18.709" rx="3.1181" ry="3.1181" fill="url(#gy)" />
        <rect transform="matrix(.92242 0 0 .92242 55.055 -125.45)" x="446.83" y="295.97" width="4.1576" height="17.323" rx="2.0788" ry="3.4646" fill="url(#gx)" />
        <g stroke-width=".781">
            <path d="m378.73 84.624c2.529-23.402-4.217-18.132-4.217-18.132s-0.21201-7.59-2.742 70.847c0 0 3.691-1.793 5.219-3.795l1.74-48.92z" fill="url(#gh)" stroke="url(#d)" />
            <path d="m385.72 149.79s28.294-0.237 32.916-3.195c3.367-2.155 23.65-2.557 25.567 0.31903 1.918 2.876 3.196 14.382 0 16.3-3.195 1.917-20.134 2.556-25.886 0-5.753-2.557-4.794-3.516-13.423-3.516h-29.721l0.32-9.908h10.227z" fill="url(#gz)" stroke="url(#b)" />
            <path d="m298.24 50.963c-9.162 0-16.445 3.911-24.457 20.241-18.133 29.237-21.085 133.53 0 167.4 9.277 21.815 19.09 21.511 28.674 20.662l33.735-6.3181c23.078-2.952 18.133-6.024 15.18-17.296l-1.686-149.27c2.53-21.812 9.584-26.144-8.434-28.253l-43.012-7.168z" fill="none" stroke="url(#fu)" />
            <path d="m356.85 161.03c-1.265 18.722 2.437 71.946 6.325 90.505 0.98401 0.83997-73.09 16.862-77.166 15.183-42.919-19.823-42.59-94.133-42.801-112.72-0.21101-18.593 0.304-82.781 41.536-110.19 5.341-4.006 67.608 12.44 79.486 14.548-9.581 38.162-7.38 86.326-7.38 102.68z" fill="url(#dx)" stroke="url(#eu)" />
        </g>
        <path d="m494.97 88.895c10.734-1.92 13.777-11.294 3.955-12.089-8.167-0.65398-12.655 3.276-17.175 11.863 0 0-0.22601 7.344-0.112 7.966-0.11401 0.62103 0.112 7.965 0.112 7.965 4.52 8.588 7.63 15.055 15.819 14.801 10.952-0.34295 4.972-9.943-2.712-15.817l0.113-14.689z" fill="url(#gr)" />
        <g stroke-width=".781">
            <path d="m370.7 143.4c14.701 0 20.773-0.63898 20.773 11.824 0.319 11.825-4.794 12.464-20.773 11.825v-23.649z" fill="url(#he)" stroke="url(#d)" />
            <path d="m370.7 149.15c13.422-0.32001 14.062 0 14.062 5.432 0 5.433 0.31998 7.032-14.062 6.712v-12.144z" fill="url(#hd)" stroke="url(#b)" />
        </g>
        <rect transform="matrix(.92242 0 0 .92242 55.055 -125.45)" x="358.83" y="303.24" width="41.576" height="2.7717" fill="url(#hc)" />
        <rect transform="matrix(.92242 0 0 .92242 55.055 -125.45)" x="368.87" y="301.86" width="16.977" height="5.197" rx="1.0394" ry="1.0394" fill="url(#hb)" />
        <g stroke-width=".781">
            <rect transform="matrix(.92242 0 0 .92242 55.055 -125.45)" x="400.05" y="297.01" width="19.748" height="14.205" rx="2.7716" ry="2.7716" fill="url(#ha)" stroke="url(#ea)" />
            <path d="m286.43 267.29l-3.373 3.579 16.599 4.013 67.126-17.37-2.741-8.246c-25.161 9.418-51.607 13.873-77.611 18.024z" fill="url(#ev)" stroke="url(#ew)" />
            <path d="m287.17 43.053l-3.374-3.585 16.024-4.006 66.837 17.079-2.741 7.379c-25.16-9.418-50.742-12.721-76.746-16.867z" fill="url(#fz)" stroke="url(#d)" />
            <path d="m510.36 54.233l30.68 3.197s18.856 17.896 16.619 101.95c-2.238 84.047-17.259 94.913-17.259 94.913l-29.401 1.919s-7.12-65.584-5.697-102.67c1.483-38.229 4.738-98.983 5.058-99.303z" fill="url(#hh)" stroke="url(#d)" />
        </g>
        <g stroke-width=".781">
            <path d="m372.22 169.85l35.704-2.485c3.8419 0.67792-2.7119 2.711 17.174 2.485 2.7119 0 29.829 1.1299 35.478 1.3605 16.873 2.26 29.453 8.1265 45.874 9.4825 1.0543 23.282 1.4316 42.265 3.8419 65.768l-38.642 14.233-105.31 0.2214 8.1348-9.7131-2.259-81.353z" fill="url(#ie)" stroke="url(#eb)" />
            <path d="m372.22 172.33s46.551-1.808 56.494-1.356c9.9437 0.45196 52.878 4.9719 54.686 26.667s1.356 30.735 1.356 30.735c0.90399 17.176-29.377 26.667-46.551 26.215-17.174-0.45203-9.0397-9.9437-9.0397-9.9437l-56.946-72.318z" fill="url(#ic)" stroke="url(#id)" />
            <path d="m436.58 213.3l0.4225 23.614-9.2777 10.543s-29.096 5.9034-37.108 5.9034c-8.0122 0-16.024-2.1031-16.024-2.1031l-2.5302-78.442s3.6897 1.7987 5.2181 3.8004c2.6123-1.688 9.3303-1.2637 13.336-1.2637 8.0121 0 37.108 5.9035 37.108 5.9035l9.2777 10.543-0.4225 23.614" fill="url(#ib)" stroke="url(#el)" />
            <path d="m471.76 196.97c-3.0052 0-4.1813 5.6913-4.1813 8.6984v17.065c0 2.9979 1.0636 8.6984 4.0679 8.6984h8.1348c3.0052 0 5.4238-1.854 5.4238-4.8611-3.8419-1.4298-5.6498-20.598 0-25.311 0.025757-3.1547-2.306-4.2892-5.3104-4.2892h-8.1349z" fill="url(#hz)" stroke="url(#ia)" />
            <g fill="none">
                <path d="m377.33 183.78v30.154h34.578v-24.666c-11.737-1.1991-23.684-2.1861-34.578-5.4884z" stroke="url(#hy)" />
                <path d="m411.7 189.47v24.675h24.88l0.2112-23.826-25.091-0.8486z" stroke="url(#hx)" />
                <path d="m377.33 244.43v-30.154h34.578v24.665c-11.737 1.1992-23.684 2.1769-34.578 5.4884z" stroke="url(#hw)" />
                <path d="m411.7 238.73v-24.666h24.88l0.2112 23.826-25.091 0.8395z" stroke="url(#hv)" />
                <path d="m436.34 237.03c5.326-0.21216 10.653-0.42432 15.979-0.63648 4.4738 1.4943 7.9891 3.9387 11.504 7.3517-11.398 5.3224-23.116 7.1395-36.112 7.3516-0.32007-5.968 3.5154-10.018 8.6283-14.067z" stroke="url(#hu)" />
            </g>
            <path d="m501.25 229.5l2.2599 12.204-21.693 0.6826 6.5529-15.819 12.881 2.9333z" fill="url(#ht)" stroke="url(#eb)" />
        </g>
        <path d="m469.9 230.96c4.4747-0.21216 8.9484-0.42432 13.422-0.63648 2.2904 14.703-39.521 24.767-55.127 21.566l-0.6392-2.0754c31.639 2.1861 42.984-7.9329 42.344-18.854z" fill="url(#hs)" />
        <rect transform="matrix(.92242 0 0 .92242 55.055 -125.45)" x="479.31" y="379.79" width="9.4318" height="18.496" rx="2.4498" ry="2.4498" fill="url(#fa)" stroke="url(#b)" stroke-width=".727" />
        <path d="m436.11 191.09c5.3261 0.21216 10.653 0.42438 15.979 0.63648 4.4738-1.4943 7.989-3.9387 11.504-7.3516-11.398-5.3224-23.116-7.1396-36.112-7.3517-0.32007 5.9681 3.5154 10.018 8.6283 14.067z" fill="none" stroke="url(#hr)" stroke-width=".781" />
        <path d="m469.67 197.16c4.4746 0.2121 8.9484 0.42426 13.422 0.63648 2.2903-14.703-39.521-24.767-55.127-21.566l-0.6392 2.0754c31.639-2.1862 42.984 7.9327 42.344 18.854z" fill="url(#hq)" />
        <g stroke-width=".781">
            <path d="m495.26 221.26c10.734 1.9186 13.776 11.3 3.9554 12.093-8.1671 0.65497-12.655-3.2745-17.175-11.862 0 0-0.22595-7.3425-0.1134-7.9697-0.11255-0.61798 0.1134-7.9604 0.1134-7.9604 4.5198-8.5877 7.6293-15.054 15.818-14.805 10.951 0.34125 4.9709 9.9437-2.7119 15.82l0.1125 14.685z" fill="url(#hp)" stroke="url(#eb)" />
            <path d="m379.02 225.53c2.5302 23.402-4.2173 18.135-4.2173 18.135s-0.2103 7.5916-2.7405-70.851c0 0 3.6897 1.7987 5.2181 3.8004l1.7397 48.916z" fill="url(#ho)" stroke="url(#el)" />
        </g>
        <path d="m495.26 221.26c10.734 1.9186 13.776 11.3 3.9554 12.093-8.1671 0.65497-12.655-3.2745-17.175-11.862 0 0-0.22595-7.3425-0.1134-7.9697-0.11255-0.61798 0.1134-7.9604 0.1134-7.9604 4.5198-8.5877 7.6293-15.054 15.818-14.805 10.951 0.34125 4.9709 9.9437-2.7119 15.82l0.1125 14.685z" fill="url(#hn)" />
        <path d="m609.34 67.266c7.741 4.813 14.713 11.779 20.568 20.385 11.709 17.213 18.951 40.992 18.951 67.259 0 26.269-7.242 50.04-18.951 67.261-5.855 8.607-12.827 15.571-20.568 20.377" fill="none" stroke="url(#hk)" stroke-width="1.389" />
        <path d="m625.15 266.05l6.4108 1.3467c7.3802-4.4277 15.505-16.078 11.629-29.896-2.3854-2.6842-5.3675 0.59961-7.1561 1.7895-7.2788 17.092-8.9641 16.557-10.884 26.759z" fill="url(#dv)" stroke="url(#dy)" />
        <path d="m635.55 254.8c1.4777-3.5144 1.4233-7.158-0.11993-8.145-1.5441-0.97778-3.9931 1.07-5.4699 4.5752s-1.4233 7.1487 0.12085 8.1357c1.5432 0.987 3.9922-1.0608 5.469-4.566z" fill="none" />
        <path d="m625.15 266.05c1.8882 0.59955 4.5226 0.74713 6.4108 1.3467 7.3802-4.4277 15.505-16.078 11.629-29.896-2.3854-2.6842-5.3675 0.59961-7.1561 1.7895 1.6889 9.3441-0.19928 21.446-10.884 26.759z" fill="url(#dv)" stroke="url(#dy)" />
        <path d="m648.26 214.92c-0.37268 5.7098-2.9813 15.229-5.0687 22.581-2.3854-2.6842-5.3675 0.59961-7.1561 1.7895 4.3732-10.331 7.6533-20.496 12.225-24.37z" fill="url(#eo)" stroke="url(#ei)" />
        <path d="m636.27 255.2c1.4777-3.5052 1.4233-7.1487-0.11993-8.1357-1.5441-0.987-3.9931 1.0608-5.4699 4.566-1.4777 3.5144-1.4233 7.158 0.11987 8.145 1.5441 0.97778 3.9932-1.0608 5.47-4.5752z" fill="url(#ek)" />
        <path d="m625.15 266.05l6.4108 1.3467c7.3802-4.4277 15.505-16.078 11.629-29.896-2.3854-2.6842-5.3675 0.59961-7.1561 1.7895-7.2788 17.092-8.9641 16.557-10.884 26.759z" fill="url(#ej)" />
        <path d="m625.44 44.453l6.4108-1.3422c7.3802 4.423 15.505 16.077 11.629 29.892-2.3854 2.6833-5.3676-0.59589-7.1561-1.7886-7.2788-17.089-8.9641-16.553-10.884-26.761z" fill="url(#dv)" stroke="url(#dy)" />
        <path d="m635.84 55.714c1.4777 3.5089 1.4233 7.1525-0.11987 8.1367-1.5441 0.98603-3.9932-1.0608-5.47-4.5697-1.4777-3.5088-1.4233-7.1515 0.12085-8.1367 1.5432-0.98511 3.9922 1.0608 5.469 4.5696z" fill="none" />
        <path d="m625.44 44.453c1.8882-0.59687 4.5226-0.74628 6.4108-1.3422 7.3802 4.423 15.505 16.077 11.629 29.892-2.3854 2.6833-5.3676-0.59589-7.1561-1.7886 1.6889-9.3431-0.19928-21.444-10.884-26.761z" fill="url(#dv)" stroke="url(#dy)" />
        <path d="m648.55 95.59c-0.37268-5.7153-2.9813-15.232-5.0687-22.587-2.3854 2.6833-5.3676-0.59589-7.1561-1.7886 4.3732 10.337 7.6533 20.499 12.225 24.376z" fill="url(#eo)" stroke="url(#ei)" />
        <path d="m636.56 55.303c1.4777 3.5089 1.4233 7.1525-0.11993 8.1376-1.5441 0.9851-3.9932-1.0608-5.4699-4.5697-1.4777-3.5088-1.4233-7.1524 0.11993-8.1376 1.5441-0.9851 3.9931 1.0608 5.4699 4.5696z" fill="url(#ek)" />
        <path d="m625.44 44.453l6.4108-1.3422c7.3802 4.423 15.505 16.077 11.629 29.892-2.3854 2.6833-5.3676-0.59589-7.1561-1.7886-7.2788-17.089-8.9641-16.553-10.884-26.761z" fill="url(#ej)" />
        <g stroke-width=".781">
            <path d="m299.8 274.75c-3.037 0-15.261 13.412-17.157 15.515-2.871 2.971 152.44-1.605 179.85-1.263 1.476-4.004 0.42297-1.476-1.264-17.083-2.53-2.187-17.837 0.21198-20.874 0.21198-49.759 0-86.024 2.324-135.78 2.324l-4.771 0.295z" fill="url(#e)" stroke="url(#b)" />
            <path d="m433.58 286.1c-1.322 0-8.349 0.76605-8.349 2.085v0.89502c0 1.319 1.362 2.084 2.684 2.084l26.836-0.295c1.321 0 2.684-0.47003 2.684-1.789v-0.89502c0-1.319-3.151-2.085-4.473-2.085h-19.382z" fill="url(#en)" stroke="url(#er)" />
            <path d="m335.94 267.71c-1.817 0-30.025 6.162-28.208 6.162 37.372 0 106.91-0.203 143.16-2.085 2.709-0.12 3.39-3.302 2.982-5.073-1.79-8.043-5.049-7.315-6.858-7.149-36.477 3.579-69.37-10.82-101.8 3.921l-9.277 4.224z" fill="url(#ey)" stroke="url(#ex)" />
            <path d="m345.64 264.33c-1.818 0-11.359 8.948-9.542 8.948 37.372 0 78.546 0.38702 114.8-1.495 2.709-0.12 3.39-3.302 2.982-5.073-1.79-8.043-5.049-7.315-6.858-7.149-36.477 3.579-64.01 4.769-101.38 4.769z" fill="url(#ez)" stroke="url(#b)" />
            <path d="m304.57 274.45c-3.037 0 18.974 3.164 30.994 3.164 4.133-0.074036 93.826-0.341 125.66-2.112 0.63306-0.84003 0.42102-2.74 0-3.588-2.53-2.187-17.837 0.21198-20.874 0.21198-49.759 0-86.024 2.324-135.78 2.324z" fill="url(#es)" stroke="url(#et)" />
            <path d="m299.54 274.92c15.009 1.54 23.041 1.309 24.898 7.305 7.757 25.985 7.853 28.918 26.836 28.623l-11.629-32.506c-2.883 0.10101-6.063-0.093018-6.858-3.275l11.629-11.032-44.876 10.885z" fill="url(#eq)" stroke="url(#d)" />
            <path d="m324.44 282.23c7.757 25.985 7.853 28.918 26.836 28.623l-11.629-32.506c-2.883 0.10101-6.063-0.093018-6.858-3.275 0 0-10.206 1.162-8.349 7.158z" fill="url(#e)" stroke="url(#b)" />
            <path d="m440.92 260.02c10.357-7.72 24.41-9.334 34.8-15.367 5.525-3.275 9.114-10.59 8.588-18.08 1.204 0.90399 2.41 1.808 3.615 2.712-1.13 8.699-6.188 17.157-13.559 20.34-18.386 7.988-20.676 6.245-19.66 21.686-3.314 0.15698-5.95-0.14801-9.264 0-1.507-3.764-3.014-7.527-4.52-11.291z" fill="url(#fb)" stroke="url(#b)" />
            <g stroke="url(#b)">
                <path d="m362.87 156.88c-0.097778-22.156-1.166-65.667 8.7685-99.064-0.42154-4.5705-4.4793-2.9268-5.9348-2.9655-11.501 34.208-8.9613 90.507-8.9041 107.71 0.056274 17.198-2.5966 58.918 8.9041 93.131 1.4556-0.036926 5.5133 1.605 5.9348-2.9702-9.9344-33.392-8.9797-77.243-8.7685-95.837z" fill="url(#ga)" />
                <path d="m359.48 155.07c-0.097778-22.156 0.86798-64.989 9.6725-99.743-1.0996-1.4067-1.9934-0.44097-3.4489-0.47967-11.501 34.208-8.9613 90.507-8.9041 107.71 0.056274 17.198-2.5966 58.918 8.9041 93.131 1.4556-0.036926 2.3494 1.153 2.9969-1.3837-8.1265-34.305-9.6577-78.156-9.4465-96.746h0.22601v-2.485z" fill="url(#gb)" />
            </g>
        </g>
    </g>
    <g name="123" stroke="url(#eu)" stroke-dasharray="null" stroke-linecap="null" stroke-linejoin="null">
        <g stroke-width=".781">
            <path d="m334.13 37.661l135.7 0.92 40.4 14.8-141.2-0.4-26.4-7.2" fill="url(#dx)" />
            <path d="m334.93 273.66l130.9 0.52 45.6-18-141.2 0.4-23.2 4.8-6.4 6" fill="url(#dx)" />
            <path d="m511.73 256.06l28.1-1.48 6.4-10.8 2.8-11.6 3.9999-18.8 3.2-26.4 0.8-25.6v-23.2l-0.8-24.8-3.2-18.8-4.4-22-7.2-15.2-31.6-4-4 85.6-0.4 39.2 3.2 51.2 1.2 20.4" fill="url(#dx)" />
            <path d="m370.13 53.261l139.3 0.12-3.2 61.2-1.2 57.2 3.2 58 2.4 24.4-0.4 2.4-140.4-0.4 4.4-5.6-2.4-74.8-0.8-17.2 0.4-22.8 2.8-76.8c-1.367-1.907-2.733-3.813-4.1-5.72z" fill="url(#e)" />
        </g>
        <g fill="url(#ig)" stroke-width="0">
            <rect x="370.13" y="250.86" width="141.6" height="4.8" />
            <rect x="369.73" y="53.261" width="141.6" height="4.8" />
            <path d="m512.53 254.86l-3.9001-24.68-2.8-51.6v-29.6l1.2-34.4 2.4-37.2 0.8-19.2h-6.4l-2 57.2-0.7999 33.6-1e-4 30 2.8 52 1.5999 24" />
        </g>
    </g>
</svg>